<?xml version="1.0" encoding="UTF-8" standalone="no"?>
<!DOCTYPE svg PUBLIC "-//W3C//DTD SVG 1.1//EN" "http://www.w3.org/Graphics/SVG/1.1/DTD/svg11.dtd">
<svg width="100%" height="100%" viewBox="0 0 1080 1080" version="1.1" xmlns="http://www.w3.org/2000/svg" xmlns:xlink="http://www.w3.org/1999/xlink" xml:space="preserve" xmlns:serif="http://www.serif.com/" style="fill-rule:evenodd;clip-rule:evenodd;stroke-linejoin:round;stroke-miterlimit:2;">
    <g transform="matrix(1,0,0,1,-81.6357,-303.787)">
        <path d="M430.26,349.105C430.26,343.296 425.551,338.587 419.743,338.587L126.949,338.587C121.14,338.587 116.431,343.296 116.431,349.105L116.431,641.899C116.431,647.708 121.14,652.416 126.949,652.416L419.743,652.416C425.551,652.416 430.26,647.708 430.26,641.899L430.26,349.105Z" style="fill:rgb(148,212,65);"/>
    </g>
    <g transform="matrix(1,0,0,1,614.944,-303.787)">
        <path d="M430.26,349.105C430.26,343.296 425.551,338.587 419.743,338.587L126.949,338.587C121.14,338.587 116.431,343.296 116.431,349.105L116.431,641.899C116.431,647.708 121.14,652.416 126.949,652.416L419.743,652.416C425.551,652.416 430.26,647.708 430.26,641.899L430.26,349.105Z" style="fill:rgb(221,221,221);"/>
    </g>
    <g transform="matrix(1,0,0,1,266.654,-303.787)">
        <path d="M430.26,349.105C430.26,343.296 425.551,338.587 419.743,338.587L126.949,338.587C121.14,338.587 116.431,343.296 116.431,349.105L116.431,641.899C116.431,647.708 121.14,652.416 126.949,652.416L419.743,652.416C425.551,652.416 430.26,647.708 430.26,641.899L430.26,349.105Z" style="fill:rgb(243,243,243);"/>
    </g>
    <g transform="matrix(1,0,0,1,-81.6357,44.4981)">
        <path d="M430.26,349.105C430.26,343.296 425.551,338.587 419.743,338.587L126.949,338.587C121.14,338.587 116.431,343.296 116.431,349.105L116.431,641.899C116.431,647.708 121.14,652.416 126.949,652.416L419.743,652.416C425.551,652.416 430.26,647.708 430.26,641.899L430.26,349.105Z" style="fill:rgb(206,206,206);"/>
    </g>
    <g transform="matrix(1,0,0,1,614.944,44.4981)">
        <path d="M430.26,349.105C430.26,343.296 425.551,338.587 419.743,338.587L126.949,338.587C121.14,338.587 116.431,343.296 116.431,349.105L116.431,641.899C116.431,647.708 121.14,652.416 126.949,652.416L419.743,652.416C425.551,652.416 430.26,647.708 430.26,641.899L430.26,349.105Z" style="fill:rgb(196,196,196);"/>
    </g>
    <g transform="matrix(1,0,0,1,266.654,44.4981)">
        <path d="M430.26,349.105C430.26,343.296 425.551,338.587 419.743,338.587L126.949,338.587C121.14,338.587 116.431,343.296 116.431,349.105L116.431,641.899C116.431,647.708 121.14,652.416 126.949,652.416L419.743,652.416C425.551,652.416 430.26,647.708 430.26,641.899L430.26,349.105Z" style="fill:rgb(29,197,191);"/>
    </g>
    <g transform="matrix(1,0,0,1,-81.6357,392.813)">
        <path d="M430.26,349.105C430.26,343.296 425.551,338.587 419.743,338.587L126.949,338.587C121.14,338.587 116.431,343.296 116.431,349.105L116.431,641.899C116.431,647.708 121.14,652.416 126.949,652.416L419.743,652.416C425.551,652.416 430.26,647.708 430.26,641.899L430.26,349.105Z" style="fill:rgb(145,145,145);"/>
    </g>
    <g transform="matrix(1,0,0,1,614.944,392.813)">
        <path d="M430.26,349.105C430.26,343.296 425.551,338.587 419.743,338.587L126.949,338.587C121.14,338.587 116.431,343.296 116.431,349.105L116.431,641.899C116.431,647.708 121.14,652.416 126.949,652.416L419.743,652.416C425.551,652.416 430.26,647.708 430.26,641.899L430.26,349.105Z" style="fill:rgb(238,238,238);"/>
    </g>
    <g transform="matrix(1,0,0,1,266.654,392.813)">
        <path d="M430.26,349.105C430.26,343.296 425.551,338.587 419.743,338.587L126.949,338.587C121.14,338.587 116.431,343.296 116.431,349.105L116.431,641.899C116.431,647.708 121.14,652.416 126.949,652.416L419.743,652.416C425.551,652.416 430.26,647.708 430.26,641.899L430.26,349.105Z" style="fill:rgb(221,221,221);"/>
    </g>
</svg>
