<?xml version="1.0" encoding="UTF-8" standalone="no"?><!DOCTYPE svg PUBLIC "-//W3C//DTD SVG 1.1//EN" "http://www.w3.org/Graphics/SVG/1.1/DTD/svg11.dtd"><svg width="100%" height="100%" viewBox="0 0 4066 4066" version="1.1" xmlns="http://www.w3.org/2000/svg" xmlns:xlink="http://www.w3.org/1999/xlink" xml:space="preserve" xmlns:serif="http://www.serif.com/" style="fill-rule:evenodd;clip-rule:evenodd;stroke-linejoin:round;stroke-miterlimit:2;"><rect id="いい感じ" x="-0" y="0" width="4065.36" height="4065.36" style="fill:none;"/><clipPath id="_clip1"><rect x="-0" y="0" width="4065.36" height="4065.36"/></clipPath><g clip-path="url(#_clip1)"><rect x="-0" y="-0.747" width="4141.99" height="4141.99" style="fill:#ec6416;"/><path d="M4065.36,4065.36l-0,-4066.11l-2033.05,0l0,4066.11l2033.05,-0Z"/><g><path d="M2087.31,2307.31l220,0l0,-110l-110,-110l-110,0l0,220Zm55,-55l110,0l0,-110l-110,0l0,110Z" style="fill:#fff;"/><path d="M2362.31,2362.31l55,55l0,-330l-55,-55l0,330Z" style="fill:#fff;"/><path d="M2142.31,2032.31l0,-55l165,0l55,55l-220,0Z" style="fill:#fff;"/><rect x="1977.31" y="2032.31" width="55" height="2033.05" style="fill:#fff;"/><rect x="2032.31" y="0" width="55" height="2032.31" style="fill:#fff;"/><path d="M1922.31,1922.31l-110,0l0,-55l55,0l-55,-55l-110,0l0,55l55,0l0,55l-110,0l0,55l110,0l0,165l55,0l0,-165l110,0l0,-55Z" style="fill:#fff;"/><path d="M1696.31,2142.31l-49,0l29,-128.863l49,0l-29,128.863Z" style="fill:#fff;"/><path d="M1873.31,2142.31l-29,-128.863l49,0l29,128.863l-49,0Z" style="fill:#fff;"/><path d="M1922.31,1922.31l55,55l0,-68.75l-55,-55l0,68.75Z" style="fill:#fff;"/><path d="M1922.31,1784.81l55,55l0,-68.75l-55,-55l0,68.75Z" style="fill:#fff;"/><path d="M1647.31,1853.56l0,-68.75l137.5,-137.5l137.5,137.5l0,68.75l-137.5,-137.5l-137.5,137.5Z" style="fill:#fff;"/></g></g></svg>